# xmcd
# Copyright (C) 1995-1998 Ti Kan
#
# Track frame offsets:
#       150
#       13601
#       33402
#       51142
#       70436
#       87647
#       105203
#       125423
#       154295
#       172658
#
# Disc length: 2580 seconds
#
# Revision: 0
# Processed by: cddbd v1.5.2PL0 Copyright (c) Steve Scherf et al.
# Submitted via: CD-Import v1.0
#
DISCID=790a120a
DTITLE=Polite Sleeper - Turf
DYEAR=11
DGENRE=
TTITLE0=West Side High
TTITLE1=Weekday Shares
TTITLE2=Knowing We're Still Holding Now
TTITLE3=Don't Know Much
TTITLE4=Dead Sounds
TTITLE5=Living In The Lower Case
TTITLE6=For Phoene
TTITLE7=Candle To The Beer Light
TTITLE8=Laptop Light
TTITLE9=Two Bridges
EXTD=
EXTT0=
EXTT1=
EXTT2=
EXTT3=
EXTT4=
EXTT5=
EXTT6=
EXTT7=
EXTT8=
EXTT9=
PLAYORDER=
